STARTFONT 2.1
FONT -Misc-TamzenForPowerline-Medium-R-Normal--9-65-100-100-C-50-ISO10646-1
SIZE 9 100 100
FONTBOUNDINGBOX 5 9 0 -2
COMMENT "Generated by fontforge, http://fontforge.sourceforge.net"
STARTPROPERTIES 24
FONTNAME_REGISTRY ""
FOUNDRY "Misc"
FAMILY_NAME "TamzenForPowerline"
WEIGHT_NAME "Medium"
SLANT "R"
SETWIDTH_NAME "Normal"
ADD_STYLE_NAME ""
PIXEL_SIZE 9
POINT_SIZE 65
RESOLUTION_X 100
RESOLUTION_Y 100
SPACING "C"
AVERAGE_WIDTH 50
CHARSET_REGISTRY "ISO10646"
CHARSET_ENCODING "1"
COPYRIGHT "(c) 2015 Scott Fial"
CAP_HEIGHT 5
X_HEIGHT 4
FONT_VERSION "1.11"
WEIGHT 10
QUAD_WIDTH 5
DEFAULT_CHAR 0
FONT_DESCENT 2
FONT_ASCENT 7
ENDPROPERTIES
CHARS 230
STARTCHAR uni0004
ENCODING 4
SWIDTH 1000 0
DWIDTH 5 0
BBX 5 5 0 0
BITMAP
20
70
F8
70
20
ENDCHAR
STARTCHAR space
ENCODING 32
SWIDTH 392 0
DWIDTH 5 0
BBX 1 1 4 -2
BITMAP
00
ENDCHAR
STARTCHAR exclam
ENCODING 33
SWIDTH 392 0
DWIDTH 5 0
BBX 1 6 1 0
BITMAP
80
80
80
80
00
80
ENDCHAR
STARTCHAR quotedbl
ENCODING 34
SWIDTH 392 0
DWIDTH 5 0
BBX 3 3 1 3
BITMAP
A0
A0
A0
ENDCHAR
STARTCHAR numbersign
ENCODING 35
SWIDTH 392 0
DWIDTH 5 0
BBX 4 6 0 0
BITMAP
50
F0
50
A0
F0
A0
ENDCHAR
STARTCHAR dollar
ENCODING 36
SWIDTH 392 0
DWIDTH 5 0
BBX 4 7 0 -1
BITMAP
20
70
80
60
10
E0
40
ENDCHAR
STARTCHAR percent
ENCODING 37
SWIDTH 392 0
DWIDTH 5 0
BBX 4 6 0 0
BITMAP
C0
D0
20
40
B0
30
ENDCHAR
STARTCHAR ampersand
ENCODING 38
SWIDTH 392 0
DWIDTH 5 0
BBX 4 6 0 0
BITMAP
60
A0
40
B0
A0
D0
ENDCHAR
STARTCHAR quotesingle
ENCODING 39
SWIDTH 392 0
DWIDTH 5 0
BBX 1 3 2 3
BITMAP
80
80
80
ENDCHAR
STARTCHAR parenleft
ENCODING 40
SWIDTH 392 0
DWIDTH 5 0
BBX 3 8 1 -2
BITMAP
20
40
80
80
80
80
40
20
ENDCHAR
STARTCHAR parenright
ENCODING 41
SWIDTH 392 0
DWIDTH 5 0
BBX 3 8 0 -2
BITMAP
80
40
20
20
20
20
40
80
ENDCHAR
STARTCHAR asterisk
ENCODING 42
SWIDTH 392 0
DWIDTH 5 0
BBX 4 4 0 1
BITMAP
20
F0
60
90
ENDCHAR
STARTCHAR plus
ENCODING 43
SWIDTH 392 0
DWIDTH 5 0
BBX 5 5 0 0
BITMAP
20
20
F8
20
20
ENDCHAR
STARTCHAR comma
ENCODING 44
SWIDTH 392 0
DWIDTH 5 0
BBX 2 3 1 -2
BITMAP
C0
40
80
ENDCHAR
STARTCHAR hyphen
ENCODING 45
SWIDTH 392 0
DWIDTH 5 0
BBX 4 1 0 2
BITMAP
F0
ENDCHAR
STARTCHAR period
ENCODING 46
SWIDTH 392 0
DWIDTH 5 0
BBX 2 1 1 0
BITMAP
C0
ENDCHAR
STARTCHAR slash
ENCODING 47
SWIDTH 392 0
DWIDTH 5 0
BBX 3 6 0 -1
BITMAP
20
20
40
40
80
80
ENDCHAR
STARTCHAR zero
ENCODING 48
SWIDTH 392 0
DWIDTH 5 0
BBX 4 5 0 0
BITMAP
60
90
90
90
60
ENDCHAR
STARTCHAR one
ENCODING 49
SWIDTH 392 0
DWIDTH 5 0
BBX 3 5 1 0
BITMAP
40
C0
40
40
E0
ENDCHAR
STARTCHAR two
ENCODING 50
SWIDTH 392 0
DWIDTH 5 0
BBX 4 5 0 0
BITMAP
E0
10
20
40
F0
ENDCHAR
STARTCHAR three
ENCODING 51
SWIDTH 392 0
DWIDTH 5 0
BBX 4 5 0 0
BITMAP
F0
20
60
10
E0
ENDCHAR
STARTCHAR four
ENCODING 52
SWIDTH 392 0
DWIDTH 5 0
BBX 4 5 0 0
BITMAP
20
60
A0
F0
20
ENDCHAR
STARTCHAR five
ENCODING 53
SWIDTH 392 0
DWIDTH 5 0
BBX 4 5 0 0
BITMAP
F0
80
E0
10
E0
ENDCHAR
STARTCHAR six
ENCODING 54
SWIDTH 392 0
DWIDTH 5 0
BBX 4 5 0 0
BITMAP
60
80
E0
90
60
ENDCHAR
STARTCHAR seven
ENCODING 55
SWIDTH 392 0
DWIDTH 5 0
BBX 4 5 0 0
BITMAP
F0
20
20
40
40
ENDCHAR
STARTCHAR eight
ENCODING 56
SWIDTH 392 0
DWIDTH 5 0
BBX 4 5 0 0
BITMAP
60
90
60
90
60
ENDCHAR
STARTCHAR nine
ENCODING 57
SWIDTH 392 0
DWIDTH 5 0
BBX 4 5 0 0
BITMAP
60
90
70
10
60
ENDCHAR
STARTCHAR colon
ENCODING 58
SWIDTH 392 0
DWIDTH 5 0
BBX 2 4 1 0
BITMAP
C0
00
00
C0
ENDCHAR
STARTCHAR semicolon
ENCODING 59
SWIDTH 392 0
DWIDTH 5 0
BBX 2 6 1 -2
BITMAP
C0
00
00
C0
40
80
ENDCHAR
STARTCHAR less
ENCODING 60
SWIDTH 392 0
DWIDTH 5 0
BBX 3 5 1 0
BITMAP
20
40
80
40
20
ENDCHAR
STARTCHAR equal
ENCODING 61
SWIDTH 392 0
DWIDTH 5 0
BBX 4 3 0 1
BITMAP
F0
00
F0
ENDCHAR
STARTCHAR greater
ENCODING 62
SWIDTH 392 0
DWIDTH 5 0
BBX 3 5 1 0
BITMAP
80
40
20
40
80
ENDCHAR
STARTCHAR question
ENCODING 63
SWIDTH 392 0
DWIDTH 5 0
BBX 4 6 0 0
BITMAP
E0
10
20
40
00
40
ENDCHAR
STARTCHAR at
ENCODING 64
SWIDTH 392 0
DWIDTH 5 0
BBX 4 7 0 -1
BITMAP
60
90
B0
B0
80
80
70
ENDCHAR
STARTCHAR A
ENCODING 65
SWIDTH 392 0
DWIDTH 5 0
BBX 4 5 0 0
BITMAP
60
90
F0
90
90
ENDCHAR
STARTCHAR B
ENCODING 66
SWIDTH 392 0
DWIDTH 5 0
BBX 4 5 0 0
BITMAP
E0
90
E0
90
E0
ENDCHAR
STARTCHAR C
ENCODING 67
SWIDTH 392 0
DWIDTH 5 0
BBX 4 5 0 0
BITMAP
70
80
80
80
70
ENDCHAR
STARTCHAR D
ENCODING 68
SWIDTH 392 0
DWIDTH 5 0
BBX 4 5 0 0
BITMAP
E0
90
90
90
E0
ENDCHAR
STARTCHAR E
ENCODING 69
SWIDTH 392 0
DWIDTH 5 0
BBX 4 5 0 0
BITMAP
F0
80
E0
80
F0
ENDCHAR
STARTCHAR F
ENCODING 70
SWIDTH 392 0
DWIDTH 5 0
BBX 4 5 0 0
BITMAP
F0
80
E0
80
80
ENDCHAR
STARTCHAR G
ENCODING 71
SWIDTH 392 0
DWIDTH 5 0
BBX 4 5 0 0
BITMAP
70
80
B0
90
70
ENDCHAR
STARTCHAR H
ENCODING 72
SWIDTH 392 0
DWIDTH 5 0
BBX 4 5 0 0
BITMAP
90
90
F0
90
90
ENDCHAR
STARTCHAR I
ENCODING 73
SWIDTH 392 0
DWIDTH 5 0
BBX 3 5 1 0
BITMAP
E0
40
40
40
E0
ENDCHAR
STARTCHAR J
ENCODING 74
SWIDTH 392 0
DWIDTH 5 0
BBX 4 5 0 0
BITMAP
10
10
10
90
60
ENDCHAR
STARTCHAR K
ENCODING 75
SWIDTH 392 0
DWIDTH 5 0
BBX 4 5 0 0
BITMAP
90
A0
C0
A0
90
ENDCHAR
STARTCHAR L
ENCODING 76
SWIDTH 392 0
DWIDTH 5 0
BBX 4 5 0 0
BITMAP
80
80
80
80
F0
ENDCHAR
STARTCHAR M
ENCODING 77
SWIDTH 392 0
DWIDTH 5 0
BBX 4 5 0 0
BITMAP
90
F0
90
90
90
ENDCHAR
STARTCHAR N
ENCODING 78
SWIDTH 392 0
DWIDTH 5 0
BBX 4 5 0 0
BITMAP
90
D0
B0
90
90
ENDCHAR
STARTCHAR O
ENCODING 79
SWIDTH 392 0
DWIDTH 5 0
BBX 4 5 0 0
BITMAP
60
90
90
90
60
ENDCHAR
STARTCHAR P
ENCODING 80
SWIDTH 392 0
DWIDTH 5 0
BBX 4 5 0 0
BITMAP
E0
90
E0
80
80
ENDCHAR
STARTCHAR Q
ENCODING 81
SWIDTH 392 0
DWIDTH 5 0
BBX 4 6 0 -1
BITMAP
60
90
90
90
60
30
ENDCHAR
STARTCHAR R
ENCODING 82
SWIDTH 392 0
DWIDTH 5 0
BBX 4 5 0 0
BITMAP
E0
90
E0
A0
90
ENDCHAR
STARTCHAR S
ENCODING 83
SWIDTH 392 0
DWIDTH 5 0
BBX 4 5 0 0
BITMAP
70
80
60
10
E0
ENDCHAR
STARTCHAR T
ENCODING 84
SWIDTH 392 0
DWIDTH 5 0
BBX 5 5 0 0
BITMAP
F8
20
20
20
20
ENDCHAR
STARTCHAR U
ENCODING 85
SWIDTH 392 0
DWIDTH 5 0
BBX 4 5 0 0
BITMAP
90
90
90
90
70
ENDCHAR
STARTCHAR V
ENCODING 86
SWIDTH 392 0
DWIDTH 5 0
BBX 4 5 0 0
BITMAP
90
90
90
60
60
ENDCHAR
STARTCHAR W
ENCODING 87
SWIDTH 392 0
DWIDTH 5 0
BBX 4 5 0 0
BITMAP
90
90
90
F0
90
ENDCHAR
STARTCHAR X
ENCODING 88
SWIDTH 392 0
DWIDTH 5 0
BBX 4 5 0 0
BITMAP
90
90
60
90
90
ENDCHAR
STARTCHAR Y
ENCODING 89
SWIDTH 392 0
DWIDTH 5 0
BBX 5 5 0 0
BITMAP
88
50
20
20
20
ENDCHAR
STARTCHAR Z
ENCODING 90
SWIDTH 392 0
DWIDTH 5 0
BBX 4 5 0 0
BITMAP
F0
20
40
80
F0
ENDCHAR
STARTCHAR bracketleft
ENCODING 91
SWIDTH 392 0
DWIDTH 5 0
BBX 3 8 1 -2
BITMAP
E0
80
80
80
80
80
80
E0
ENDCHAR
STARTCHAR backslash
ENCODING 92
SWIDTH 392 0
DWIDTH 5 0
BBX 3 6 0 -1
BITMAP
80
80
40
40
20
20
ENDCHAR
STARTCHAR bracketright
ENCODING 93
SWIDTH 392 0
DWIDTH 5 0
BBX 3 8 0 -2
BITMAP
E0
20
20
20
20
20
20
E0
ENDCHAR
STARTCHAR asciicircum
ENCODING 94
SWIDTH 392 0
DWIDTH 5 0
BBX 3 2 1 3
BITMAP
40
A0
ENDCHAR
STARTCHAR underscore
ENCODING 95
SWIDTH 392 0
DWIDTH 5 0
BBX 5 1 0 -1
BITMAP
F8
ENDCHAR
STARTCHAR grave
ENCODING 96
SWIDTH 392 0
DWIDTH 5 0
BBX 3 3 1 3
BITMAP
80
40
20
ENDCHAR
STARTCHAR a
ENCODING 97
SWIDTH 392 0
DWIDTH 5 0
BBX 4 4 0 0
BITMAP
70
90
90
70
ENDCHAR
STARTCHAR b
ENCODING 98
SWIDTH 392 0
DWIDTH 5 0
BBX 4 6 0 0
BITMAP
80
80
E0
90
90
E0
ENDCHAR
STARTCHAR c
ENCODING 99
SWIDTH 392 0
DWIDTH 5 0
BBX 3 4 0 0
BITMAP
60
80
80
60
ENDCHAR
STARTCHAR d
ENCODING 100
SWIDTH 392 0
DWIDTH 5 0
BBX 4 6 0 0
BITMAP
10
10
70
90
90
70
ENDCHAR
STARTCHAR e
ENCODING 101
SWIDTH 392 0
DWIDTH 5 0
BBX 4 4 0 0
BITMAP
70
A0
C0
70
ENDCHAR
STARTCHAR f
ENCODING 102
SWIDTH 392 0
DWIDTH 5 0
BBX 4 6 0 0
BITMAP
30
40
F0
40
40
40
ENDCHAR
STARTCHAR g
ENCODING 103
SWIDTH 392 0
DWIDTH 5 0
BBX 4 6 0 -2
BITMAP
70
90
90
70
10
60
ENDCHAR
STARTCHAR h
ENCODING 104
SWIDTH 392 0
DWIDTH 5 0
BBX 4 6 0 0
BITMAP
80
80
E0
90
90
90
ENDCHAR
STARTCHAR i
ENCODING 105
SWIDTH 392 0
DWIDTH 5 0
BBX 3 6 1 0
BITMAP
40
00
C0
40
40
E0
ENDCHAR
STARTCHAR j
ENCODING 106
SWIDTH 392 0
DWIDTH 5 0
BBX 3 8 0 -2
BITMAP
20
00
60
20
20
20
20
C0
ENDCHAR
STARTCHAR k
ENCODING 107
SWIDTH 392 0
DWIDTH 5 0
BBX 4 6 0 0
BITMAP
80
80
A0
C0
A0
90
ENDCHAR
STARTCHAR l
ENCODING 108
SWIDTH 392 0
DWIDTH 5 0
BBX 3 6 1 0
BITMAP
C0
40
40
40
40
E0
ENDCHAR
STARTCHAR m
ENCODING 109
SWIDTH 392 0
DWIDTH 5 0
BBX 4 4 0 0
BITMAP
B0
F0
90
90
ENDCHAR
STARTCHAR n
ENCODING 110
SWIDTH 392 0
DWIDTH 5 0
BBX 4 4 0 0
BITMAP
E0
90
90
90
ENDCHAR
STARTCHAR o
ENCODING 111
SWIDTH 392 0
DWIDTH 5 0
BBX 4 4 0 0
BITMAP
60
90
90
60
ENDCHAR
STARTCHAR p
ENCODING 112
SWIDTH 392 0
DWIDTH 5 0
BBX 4 6 0 -2
BITMAP
E0
90
90
E0
80
80
ENDCHAR
STARTCHAR q
ENCODING 113
SWIDTH 392 0
DWIDTH 5 0
BBX 4 6 0 -2
BITMAP
70
90
90
70
10
10
ENDCHAR
STARTCHAR r
ENCODING 114
SWIDTH 392 0
DWIDTH 5 0
BBX 4 4 0 0
BITMAP
B0
C0
80
80
ENDCHAR
STARTCHAR s
ENCODING 115
SWIDTH 392 0
DWIDTH 5 0
BBX 4 4 0 0
BITMAP
70
40
20
F0
ENDCHAR
STARTCHAR t
ENCODING 116
SWIDTH 392 0
DWIDTH 5 0
BBX 4 5 0 0
BITMAP
40
F0
40
40
30
ENDCHAR
STARTCHAR u
ENCODING 117
SWIDTH 392 0
DWIDTH 5 0
BBX 4 4 0 0
BITMAP
90
90
90
70
ENDCHAR
STARTCHAR v
ENCODING 118
SWIDTH 392 0
DWIDTH 5 0
BBX 4 4 0 0
BITMAP
90
90
60
60
ENDCHAR
STARTCHAR w
ENCODING 119
SWIDTH 392 0
DWIDTH 5 0
BBX 4 4 0 0
BITMAP
90
90
F0
F0
ENDCHAR
STARTCHAR x
ENCODING 120
SWIDTH 392 0
DWIDTH 5 0
BBX 4 4 0 0
BITMAP
90
60
60
90
ENDCHAR
STARTCHAR y
ENCODING 121
SWIDTH 392 0
DWIDTH 5 0
BBX 4 6 0 -2
BITMAP
90
90
90
60
20
40
ENDCHAR
STARTCHAR z
ENCODING 122
SWIDTH 392 0
DWIDTH 5 0
BBX 4 4 0 0
BITMAP
F0
20
40
F0
ENDCHAR
STARTCHAR braceleft
ENCODING 123
SWIDTH 392 0
DWIDTH 5 0
BBX 4 7 0 -1
BITMAP
30
20
20
E0
20
20
30
ENDCHAR
STARTCHAR bar
ENCODING 124
SWIDTH 392 0
DWIDTH 5 0
BBX 1 7 2 -1
BITMAP
80
80
80
80
80
80
80
ENDCHAR
STARTCHAR braceright
ENCODING 125
SWIDTH 392 0
DWIDTH 5 0
BBX 4 7 0 -1
BITMAP
C0
40
40
70
40
40
C0
ENDCHAR
STARTCHAR asciitilde
ENCODING 126
SWIDTH 392 0
DWIDTH 5 0
BBX 4 2 0 3
BITMAP
D0
B0
ENDCHAR
STARTCHAR uni00A0
ENCODING 160
SWIDTH 392 0
DWIDTH 5 0
BBX 1 1 4 -2
BITMAP
00
ENDCHAR
STARTCHAR exclamdown
ENCODING 161
SWIDTH 392 0
DWIDTH 5 0
BBX 1 6 1 -2
BITMAP
80
00
80
80
80
80
ENDCHAR
STARTCHAR cent
ENCODING 162
SWIDTH 392 0
DWIDTH 5 0
BBX 4 6 0 0
BITMAP
20
70
A0
A0
70
20
ENDCHAR
STARTCHAR sterling
ENCODING 163
SWIDTH 392 0
DWIDTH 5 0
BBX 4 6 0 0
BITMAP
30
40
E0
40
40
F0
ENDCHAR
STARTCHAR currency
ENCODING 164
SWIDTH 392 0
DWIDTH 5 0
BBX 4 6 0 0
BITMAP
90
60
90
90
60
90
ENDCHAR
STARTCHAR yen
ENCODING 165
SWIDTH 392 0
DWIDTH 5 0
BBX 5 6 0 0
BITMAP
88
50
20
F8
20
20
ENDCHAR
STARTCHAR brokenbar
ENCODING 166
SWIDTH 392 0
DWIDTH 5 0
BBX 1 7 2 -1
BITMAP
80
80
80
00
80
80
80
ENDCHAR
STARTCHAR dieresis
ENCODING 168
SWIDTH 392 0
DWIDTH 5 0
BBX 3 1 1 5
BITMAP
A0
ENDCHAR
STARTCHAR copyright
ENCODING 169
SWIDTH 392 0
DWIDTH 5 0
BBX 4 5 0 0
BITMAP
60
90
B0
90
60
ENDCHAR
STARTCHAR guillemotleft
ENCODING 171
SWIDTH 392 0
DWIDTH 5 0
BBX 5 3 0 0
BITMAP
48
90
48
ENDCHAR
STARTCHAR logicalnot
ENCODING 172
SWIDTH 1000 0
DWIDTH 5 0
BBX 4 2 0 1
BITMAP
F0
10
ENDCHAR
STARTCHAR uni00AD
ENCODING 173
SWIDTH 392 0
DWIDTH 5 0
BBX 4 1 0 2
BITMAP
F0
ENDCHAR
STARTCHAR degree
ENCODING 176
SWIDTH 392 0
DWIDTH 5 0
BBX 4 3 0 2
BITMAP
60
90
60
ENDCHAR
STARTCHAR plusminus
ENCODING 177
SWIDTH 1000 0
DWIDTH 5 0
BBX 5 5 0 0
BITMAP
20
F8
20
00
F8
ENDCHAR
STARTCHAR acute
ENCODING 180
SWIDTH 392 0
DWIDTH 5 0
BBX 2 2 2 4
BITMAP
40
80
ENDCHAR
STARTCHAR periodcentered
ENCODING 183
SWIDTH 1000 0
DWIDTH 5 0
BBX 1 1 2 2
BITMAP
80
ENDCHAR
STARTCHAR cedilla
ENCODING 184
SWIDTH 392 0
DWIDTH 5 0
BBX 2 2 1 -2
BITMAP
40
C0
ENDCHAR
STARTCHAR guillemotright
ENCODING 187
SWIDTH 392 0
DWIDTH 5 0
BBX 5 3 0 0
BITMAP
90
48
90
ENDCHAR
STARTCHAR questiondown
ENCODING 191
SWIDTH 392 0
DWIDTH 5 0
BBX 4 6 0 -2
BITMAP
20
00
20
40
80
70
ENDCHAR
STARTCHAR Agrave
ENCODING 192
SWIDTH 392 0
DWIDTH 5 0
BBX 4 6 0 0
BITMAP
40
20
30
50
F0
90
ENDCHAR
STARTCHAR Aacute
ENCODING 193
SWIDTH 392 0
DWIDTH 5 0
BBX 4 6 0 0
BITMAP
20
40
30
50
F0
90
ENDCHAR
STARTCHAR Acircumflex
ENCODING 194
SWIDTH 392 0
DWIDTH 5 0
BBX 4 6 0 0
BITMAP
40
A0
30
50
F0
90
ENDCHAR
STARTCHAR Atilde
ENCODING 195
SWIDTH 392 0
DWIDTH 5 0
BBX 4 6 0 0
BITMAP
D0
B0
20
50
F0
90
ENDCHAR
STARTCHAR Adieresis
ENCODING 196
SWIDTH 392 0
DWIDTH 5 0
BBX 4 6 0 0
BITMAP
50
00
30
50
F0
90
ENDCHAR
STARTCHAR Aring
ENCODING 197
SWIDTH 392 0
DWIDTH 5 0
BBX 4 6 0 0
BITMAP
30
50
20
50
F0
90
ENDCHAR
STARTCHAR AE
ENCODING 198
SWIDTH 392 0
DWIDTH 5 0
BBX 4 5 0 0
BITMAP
70
A0
F0
A0
B0
ENDCHAR
STARTCHAR Ccedilla
ENCODING 199
SWIDTH 392 0
DWIDTH 5 0
BBX 4 7 0 -2
BITMAP
70
80
80
80
70
20
60
ENDCHAR
STARTCHAR Egrave
ENCODING 200
SWIDTH 392 0
DWIDTH 5 0
BBX 4 7 0 0
BITMAP
40
20
F0
80
E0
80
F0
ENDCHAR
STARTCHAR Eacute
ENCODING 201
SWIDTH 392 0
DWIDTH 5 0
BBX 4 7 0 0
BITMAP
10
20
F0
80
E0
80
F0
ENDCHAR
STARTCHAR Ecircumflex
ENCODING 202
SWIDTH 392 0
DWIDTH 5 0
BBX 4 7 0 0
BITMAP
20
50
F0
80
E0
80
F0
ENDCHAR
STARTCHAR Edieresis
ENCODING 203
SWIDTH 392 0
DWIDTH 5 0
BBX 4 7 0 0
BITMAP
50
00
F0
80
E0
80
F0
ENDCHAR
STARTCHAR Igrave
ENCODING 204
SWIDTH 392 0
DWIDTH 5 0
BBX 3 7 1 0
BITMAP
80
40
E0
40
40
40
E0
ENDCHAR
STARTCHAR Iacute
ENCODING 205
SWIDTH 392 0
DWIDTH 5 0
BBX 3 7 1 0
BITMAP
20
40
E0
40
40
40
E0
ENDCHAR
STARTCHAR Icircumflex
ENCODING 206
SWIDTH 392 0
DWIDTH 5 0
BBX 3 7 1 0
BITMAP
40
A0
00
E0
40
40
E0
ENDCHAR
STARTCHAR Idieresis
ENCODING 207
SWIDTH 392 0
DWIDTH 5 0
BBX 3 7 1 0
BITMAP
A0
00
E0
40
40
40
E0
ENDCHAR
STARTCHAR Eth
ENCODING 208
SWIDTH 392 0
DWIDTH 5 0
BBX 4 5 0 0
BITMAP
E0
50
D0
50
E0
ENDCHAR
STARTCHAR Ntilde
ENCODING 209
SWIDTH 392 0
DWIDTH 5 0
BBX 4 7 0 0
BITMAP
D0
B0
00
90
D0
B0
90
ENDCHAR
STARTCHAR Ograve
ENCODING 210
SWIDTH 392 0
DWIDTH 5 0
BBX 4 7 0 0
BITMAP
80
40
60
90
90
90
60
ENDCHAR
STARTCHAR Oacute
ENCODING 211
SWIDTH 392 0
DWIDTH 5 0
BBX 4 7 0 0
BITMAP
10
20
60
90
90
90
60
ENDCHAR
STARTCHAR Ocircumflex
ENCODING 212
SWIDTH 392 0
DWIDTH 5 0
BBX 4 7 0 0
BITMAP
40
A0
00
60
90
90
60
ENDCHAR
STARTCHAR Otilde
ENCODING 213
SWIDTH 392 0
DWIDTH 5 0
BBX 4 7 0 0
BITMAP
D0
B0
00
60
90
90
60
ENDCHAR
STARTCHAR Odieresis
ENCODING 214
SWIDTH 392 0
DWIDTH 5 0
BBX 4 7 0 0
BITMAP
90
00
60
90
90
90
60
ENDCHAR
STARTCHAR multiply
ENCODING 215
SWIDTH 392 0
DWIDTH 5 0
BBX 3 3 1 1
BITMAP
A0
40
A0
ENDCHAR
STARTCHAR Oslash
ENCODING 216
SWIDTH 392 0
DWIDTH 5 0
BBX 4 7 0 -1
BITMAP
10
60
90
90
90
60
80
ENDCHAR
STARTCHAR Ugrave
ENCODING 217
SWIDTH 392 0
DWIDTH 5 0
BBX 4 7 0 0
BITMAP
80
40
90
90
90
90
60
ENDCHAR
STARTCHAR Uacute
ENCODING 218
SWIDTH 392 0
DWIDTH 5 0
BBX 4 7 0 0
BITMAP
10
20
90
90
90
90
60
ENDCHAR
STARTCHAR Ucircumflex
ENCODING 219
SWIDTH 392 0
DWIDTH 5 0
BBX 4 7 0 0
BITMAP
40
A0
00
90
90
90
60
ENDCHAR
STARTCHAR Udieresis
ENCODING 220
SWIDTH 392 0
DWIDTH 5 0
BBX 4 7 0 0
BITMAP
A0
00
90
90
90
90
60
ENDCHAR
STARTCHAR Yacute
ENCODING 221
SWIDTH 392 0
DWIDTH 5 0
BBX 5 7 0 0
BITMAP
40
20
88
50
20
20
20
ENDCHAR
STARTCHAR Thorn
ENCODING 222
SWIDTH 392 0
DWIDTH 5 0
BBX 4 5 0 0
BITMAP
80
E0
90
E0
80
ENDCHAR
STARTCHAR germandbls
ENCODING 223
SWIDTH 392 0
DWIDTH 5 0
BBX 4 5 0 0
BITMAP
70
90
A0
90
A0
ENDCHAR
STARTCHAR agrave
ENCODING 224
SWIDTH 392 0
DWIDTH 5 0
BBX 4 6 0 0
BITMAP
80
40
70
90
90
70
ENDCHAR
STARTCHAR aacute
ENCODING 225
SWIDTH 392 0
DWIDTH 5 0
BBX 4 6 0 0
BITMAP
10
20
70
90
90
70
ENDCHAR
STARTCHAR acircumflex
ENCODING 226
SWIDTH 392 0
DWIDTH 5 0
BBX 4 7 0 0
BITMAP
20
50
00
70
90
90
70
ENDCHAR
STARTCHAR atilde
ENCODING 227
SWIDTH 392 0
DWIDTH 5 0
BBX 4 7 0 0
BITMAP
D0
B0
00
70
90
90
70
ENDCHAR
STARTCHAR adieresis
ENCODING 228
SWIDTH 392 0
DWIDTH 5 0
BBX 4 6 0 0
BITMAP
50
00
70
90
90
70
ENDCHAR
STARTCHAR aring
ENCODING 229
SWIDTH 392 0
DWIDTH 5 0
BBX 4 7 0 0
BITMAP
30
50
20
70
90
90
70
ENDCHAR
STARTCHAR ae
ENCODING 230
SWIDTH 392 0
DWIDTH 5 0
BBX 4 4 0 0
BITMAP
F0
70
A0
F0
ENDCHAR
STARTCHAR ccedilla
ENCODING 231
SWIDTH 392 0
DWIDTH 5 0
BBX 3 6 0 -2
BITMAP
60
80
80
60
40
C0
ENDCHAR
STARTCHAR egrave
ENCODING 232
SWIDTH 392 0
DWIDTH 5 0
BBX 4 6 0 0
BITMAP
80
40
70
A0
C0
70
ENDCHAR
STARTCHAR eacute
ENCODING 233
SWIDTH 392 0
DWIDTH 5 0
BBX 4 6 0 0
BITMAP
10
20
70
A0
C0
70
ENDCHAR
STARTCHAR ecircumflex
ENCODING 234
SWIDTH 392 0
DWIDTH 5 0
BBX 4 7 0 0
BITMAP
20
50
00
70
A0
C0
70
ENDCHAR
STARTCHAR edieresis
ENCODING 235
SWIDTH 392 0
DWIDTH 5 0
BBX 4 6 0 0
BITMAP
50
00
70
A0
C0
70
ENDCHAR
STARTCHAR igrave
ENCODING 236
SWIDTH 392 0
DWIDTH 5 0
BBX 3 6 1 0
BITMAP
80
40
C0
40
40
E0
ENDCHAR
STARTCHAR iacute
ENCODING 237
SWIDTH 392 0
DWIDTH 5 0
BBX 3 6 1 0
BITMAP
20
40
C0
40
40
E0
ENDCHAR
STARTCHAR icircumflex
ENCODING 238
SWIDTH 392 0
DWIDTH 5 0
BBX 3 7 1 0
BITMAP
40
A0
00
C0
40
40
E0
ENDCHAR
STARTCHAR idieresis
ENCODING 239
SWIDTH 392 0
DWIDTH 5 0
BBX 3 6 1 0
BITMAP
A0
00
C0
40
40
E0
ENDCHAR
STARTCHAR eth
ENCODING 240
SWIDTH 392 0
DWIDTH 5 0
BBX 4 7 0 0
BITMAP
40
F0
20
60
90
90
60
ENDCHAR
STARTCHAR ntilde
ENCODING 241
SWIDTH 392 0
DWIDTH 5 0
BBX 4 7 0 0
BITMAP
D0
B0
00
E0
90
90
90
ENDCHAR
STARTCHAR ograve
ENCODING 242
SWIDTH 392 0
DWIDTH 5 0
BBX 4 6 0 0
BITMAP
80
40
60
90
90
60
ENDCHAR
STARTCHAR oacute
ENCODING 243
SWIDTH 392 0
DWIDTH 5 0
BBX 4 6 0 0
BITMAP
10
20
60
90
90
60
ENDCHAR
STARTCHAR ocircumflex
ENCODING 244
SWIDTH 392 0
DWIDTH 5 0
BBX 4 7 0 0
BITMAP
40
A0
00
60
90
90
60
ENDCHAR
STARTCHAR otilde
ENCODING 245
SWIDTH 392 0
DWIDTH 5 0
BBX 4 7 0 0
BITMAP
D0
B0
00
60
90
90
60
ENDCHAR
STARTCHAR odieresis
ENCODING 246
SWIDTH 392 0
DWIDTH 5 0
BBX 4 6 0 0
BITMAP
90
00
60
90
90
60
ENDCHAR
STARTCHAR divide
ENCODING 247
SWIDTH 392 0
DWIDTH 5 0
BBX 3 5 1 0
BITMAP
40
00
E0
00
40
ENDCHAR
STARTCHAR oslash
ENCODING 248
SWIDTH 392 0
DWIDTH 5 0
BBX 4 6 0 -1
BITMAP
10
60
90
90
60
80
ENDCHAR
STARTCHAR ugrave
ENCODING 249
SWIDTH 392 0
DWIDTH 5 0
BBX 4 6 0 0
BITMAP
80
40
90
90
90
60
ENDCHAR
STARTCHAR uacute
ENCODING 250
SWIDTH 392 0
DWIDTH 5 0
BBX 4 6 0 0
BITMAP
10
20
90
90
90
60
ENDCHAR
STARTCHAR ucircumflex
ENCODING 251
SWIDTH 392 0
DWIDTH 5 0
BBX 4 7 0 0
BITMAP
40
A0
00
90
90
90
60
ENDCHAR
STARTCHAR udieresis
ENCODING 252
SWIDTH 392 0
DWIDTH 5 0
BBX 4 6 0 0
BITMAP
A0
00
90
90
90
60
ENDCHAR
STARTCHAR yacute
ENCODING 253
SWIDTH 392 0
DWIDTH 5 0
BBX 4 8 0 -2
BITMAP
10
20
90
90
90
70
10
60
ENDCHAR
STARTCHAR thorn
ENCODING 254
SWIDTH 392 0
DWIDTH 5 0
BBX 4 8 0 -2
BITMAP
80
80
E0
90
90
E0
80
80
ENDCHAR
STARTCHAR ydieresis
ENCODING 255
SWIDTH 392 0
DWIDTH 5 0
BBX 4 8 0 -2
BITMAP
A0
00
90
90
90
70
10
60
ENDCHAR
STARTCHAR florin
ENCODING 402
SWIDTH 1000 0
DWIDTH 5 0
BBX 4 7 0 -1
BITMAP
30
40
E0
40
40
40
80
ENDCHAR
STARTCHAR pi
ENCODING 960
SWIDTH 1000 0
DWIDTH 5 0
BBX 5 4 0 0
BITMAP
F8
50
50
50
ENDCHAR
STARTCHAR bullet
ENCODING 8226
SWIDTH 1000 0
DWIDTH 5 0
BBX 2 2 1 2
BITMAP
C0
C0
ENDCHAR
STARTCHAR ellipsis
ENCODING 8230
SWIDTH 1000 0
DWIDTH 5 0
BBX 5 1 0 0
BITMAP
A8
ENDCHAR
STARTCHAR arrowleft
ENCODING 8592
SWIDTH 1000 0
DWIDTH 5 0
BBX 5 5 0 0
BITMAP
20
40
F8
40
20
ENDCHAR
STARTCHAR arrowup
ENCODING 8593
SWIDTH 1000 0
DWIDTH 5 0
BBX 5 7 0 -1
BITMAP
20
70
A8
20
20
20
20
ENDCHAR
STARTCHAR arrowright
ENCODING 8594
SWIDTH 1000 0
DWIDTH 5 0
BBX 5 5 0 0
BITMAP
20
10
F8
10
20
ENDCHAR
STARTCHAR arrowdown
ENCODING 8595
SWIDTH 1000 0
DWIDTH 5 0
BBX 5 7 0 -1
BITMAP
20
20
20
20
A8
70
20
ENDCHAR
STARTCHAR arrowboth
ENCODING 8596
SWIDTH 1000 0
DWIDTH 5 0
BBX 5 3 0 1
BITMAP
50
F8
50
ENDCHAR
STARTCHAR arrowupdn
ENCODING 8597
SWIDTH 1000 0
DWIDTH 5 0
BBX 5 7 0 -1
BITMAP
20
70
A8
20
A8
70
20
ENDCHAR
STARTCHAR infinity
ENCODING 8734
SWIDTH 1000 0
DWIDTH 5 0
BBX 5 3 0 1
BITMAP
50
A8
50
ENDCHAR
STARTCHAR SF100000
ENCODING 9472
SWIDTH 392 0
DWIDTH 5 0
BBX 5 1 0 2
BITMAP
F8
ENDCHAR
STARTCHAR SF110000
ENCODING 9474
SWIDTH 392 0
DWIDTH 5 0
BBX 1 9 2 -2
BITMAP
80
80
80
80
80
80
80
80
80
ENDCHAR
STARTCHAR SF010000
ENCODING 9484
SWIDTH 392 0
DWIDTH 5 0
BBX 3 5 2 -2
BITMAP
E0
80
80
80
80
ENDCHAR
STARTCHAR SF030000
ENCODING 9488
SWIDTH 392 0
DWIDTH 5 0
BBX 3 5 0 -2
BITMAP
E0
20
20
20
20
ENDCHAR
STARTCHAR SF020000
ENCODING 9492
SWIDTH 392 0
DWIDTH 5 0
BBX 3 5 2 2
BITMAP
80
80
80
80
E0
ENDCHAR
STARTCHAR SF040000
ENCODING 9496
SWIDTH 392 0
DWIDTH 5 0
BBX 3 5 0 2
BITMAP
20
20
20
20
E0
ENDCHAR
STARTCHAR SF080000
ENCODING 9500
SWIDTH 392 0
DWIDTH 5 0
BBX 3 9 2 -2
BITMAP
80
80
80
80
E0
80
80
80
80
ENDCHAR
STARTCHAR SF090000
ENCODING 9508
SWIDTH 392 0
DWIDTH 5 0
BBX 3 9 0 -2
BITMAP
20
20
20
20
E0
20
20
20
20
ENDCHAR
STARTCHAR SF060000
ENCODING 9516
SWIDTH 392 0
DWIDTH 5 0
BBX 5 5 0 -2
BITMAP
F8
20
20
20
20
ENDCHAR
STARTCHAR SF070000
ENCODING 9524
SWIDTH 392 0
DWIDTH 5 0
BBX 5 5 0 2
BITMAP
20
20
20
20
F8
ENDCHAR
STARTCHAR SF050000
ENCODING 9532
SWIDTH 392 0
DWIDTH 5 0
BBX 5 9 0 -2
BITMAP
20
20
20
20
F8
20
20
20
20
ENDCHAR
STARTCHAR upblock
ENCODING 9600
SWIDTH 1000 0
DWIDTH 5 0
BBX 5 4 0 3
BITMAP
F8
F8
F8
F8
ENDCHAR
STARTCHAR dnblock
ENCODING 9604
SWIDTH 1000 0
DWIDTH 5 0
BBX 5 5 0 -2
BITMAP
F8
F8
F8
F8
F8
ENDCHAR
STARTCHAR block
ENCODING 9608
SWIDTH 1000 0
DWIDTH 5 0
BBX 5 9 0 -2
BITMAP
F8
F8
F8
F8
F8
F8
F8
F8
F8
ENDCHAR
STARTCHAR lfblock
ENCODING 9612
SWIDTH 1000 0
DWIDTH 5 0
BBX 3 9 0 -2
BITMAP
E0
E0
E0
E0
E0
E0
E0
E0
E0
ENDCHAR
STARTCHAR rtblock
ENCODING 9616
SWIDTH 1000 0
DWIDTH 5 0
BBX 2 9 3 -2
BITMAP
C0
C0
C0
C0
C0
C0
C0
C0
C0
ENDCHAR
STARTCHAR shade
ENCODING 9618
SWIDTH 392 0
DWIDTH 5 0
BBX 5 9 0 -2
BITMAP
50
A8
50
A8
50
A8
50
A8
50
ENDCHAR
STARTCHAR circle
ENCODING 9675
SWIDTH 1000 0
DWIDTH 5 0
BBX 3 4 1 1
BITMAP
40
A0
A0
40
ENDCHAR
STARTCHAR invcircle
ENCODING 9689
SWIDTH 1000 0
DWIDTH 5 0
BBX 5 9 0 -2
BITMAP
F8
F8
D8
A8
A8
D8
F8
F8
F8
ENDCHAR
STARTCHAR diamond
ENCODING 9830
SWIDTH 1000 0
DWIDTH 5 0
BBX 5 5 0 0
BITMAP
20
70
F8
70
20
ENDCHAR
STARTCHAR uniE0A0
ENCODING 57504
SWIDTH 400 0
DWIDTH 5 0
BBX 5 9 0 -2
BITMAP
80
90
B8
90
90
30
60
C0
C0
ENDCHAR
STARTCHAR uniE0A1
ENCODING 57505
SWIDTH 400 0
DWIDTH 5 0
BBX 5 9 0 -2
BITMAP
80
80
80
E0
00
48
68
58
48
ENDCHAR
STARTCHAR uniE0A2
ENCODING 57506
SWIDTH 400 0
DWIDTH 5 0
BBX 5 9 0 -2
BITMAP
20
50
50
50
F8
E8
D8
A8
F8
ENDCHAR
STARTCHAR uniE0A3
ENCODING 57507
SWIDTH 1000 0
DWIDTH 5 0
BBX 5 9 0 -2
BITMAP
E0
80
80
E0
00
48
68
58
48
ENDCHAR
STARTCHAR uniE0B0
ENCODING 57520
SWIDTH 400 0
DWIDTH 5 0
BBX 5 9 0 -2
BITMAP
80
C0
E0
F0
F8
F0
E0
C0
80
ENDCHAR
STARTCHAR uniE0B1
ENCODING 57521
SWIDTH 400 0
DWIDTH 5 0
BBX 5 9 0 -2
BITMAP
80
40
20
10
08
10
20
40
80
ENDCHAR
STARTCHAR uniE0B2
ENCODING 57522
SWIDTH 400 0
DWIDTH 5 0
BBX 5 9 0 -2
BITMAP
08
18
38
78
F8
78
38
18
08
ENDCHAR
STARTCHAR uniE0B3
ENCODING 57523
SWIDTH 400 0
DWIDTH 5 0
BBX 5 9 0 -2
BITMAP
08
10
20
40
80
40
20
10
08
ENDCHAR
STARTCHAR uniE0B4
ENCODING 57524
SWIDTH 1000 0
DWIDTH 5 0
BBX 5 9 0 -2
BITMAP
C0
F0
F0
F8
F8
F8
F0
F0
C0
ENDCHAR
STARTCHAR uniE0B5
ENCODING 57525
SWIDTH 1000 0
DWIDTH 5 0
BBX 5 9 0 -2
BITMAP
C0
30
10
18
08
18
10
30
C0
ENDCHAR
STARTCHAR uniE0B6
ENCODING 57526
SWIDTH 1000 0
DWIDTH 5 0
BBX 5 9 0 -2
BITMAP
18
78
78
F8
F8
F8
78
78
18
ENDCHAR
STARTCHAR uniE0B7
ENCODING 57527
SWIDTH 1000 0
DWIDTH 5 0
BBX 5 9 0 -2
BITMAP
18
60
40
C0
80
C0
40
60
18
ENDCHAR
STARTCHAR uniE0B8
ENCODING 57528
SWIDTH 1000 0
DWIDTH 5 0
BBX 5 9 0 -2
BITMAP
80
80
C0
C0
E0
E0
F0
F0
F8
ENDCHAR
STARTCHAR uniE0B9
ENCODING 57529
SWIDTH 1000 0
DWIDTH 5 0
BBX 5 9 0 -2
BITMAP
80
80
40
40
20
10
10
08
08
ENDCHAR
STARTCHAR uniE0BA
ENCODING 57530
SWIDTH 1000 0
DWIDTH 5 0
BBX 5 9 0 -2
BITMAP
08
08
18
18
38
38
78
78
F8
ENDCHAR
STARTCHAR uniE0BB
ENCODING 57531
SWIDTH 1000 0
DWIDTH 5 0
BBX 5 9 0 -2
BITMAP
08
08
10
10
20
40
40
80
80
ENDCHAR
STARTCHAR uniE0BC
ENCODING 57532
SWIDTH 1000 0
DWIDTH 5 0
BBX 5 9 0 -2
BITMAP
F8
F0
F0
E0
E0
C0
C0
80
80
ENDCHAR
STARTCHAR uniE0BD
ENCODING 57533
SWIDTH 1000 0
DWIDTH 5 0
BBX 5 9 0 -2
BITMAP
08
08
10
10
20
40
40
80
80
ENDCHAR
STARTCHAR uniE0BE
ENCODING 57534
SWIDTH 1000 0
DWIDTH 5 0
BBX 5 9 0 -2
BITMAP
F8
78
78
38
38
18
18
08
08
ENDCHAR
STARTCHAR uniE0BF
ENCODING 57535
SWIDTH 1000 0
DWIDTH 5 0
BBX 5 9 0 -2
BITMAP
80
80
40
40
20
10
10
08
08
ENDCHAR
ENDFONT
